<svg width="64" height="64" viewBox="0 0 64 64" fill="none" xmlns="http://www.w3.org/2000/svg">
<rect x="1.16364" y="1.16364" width="61.6727" height="61.6727" rx="10.3564" fill="url(#paint0_linear_12201_2578)"/>
<rect x="1.16364" y="1.16364" width="61.6727" height="61.6727" rx="10.3564" stroke="url(#paint1_linear_12201_2578)" stroke-width="2.32727"/>
<path d="M51.163 36.4228L51.1101 36.4784C51.0854 36.5039 51.0604 36.5293 51.0351 36.5545L36.5354 51.0309C34.0096 53.5526 29.9144 53.5526 27.3885 51.0309L23.3844 47.0334C23.1005 46.7511 23.0999 46.292 23.3825 46.0084C23.4657 45.925 23.5679 45.8631 23.6803 45.828C27.972 44.5032 31.4592 42.9739 34.1418 41.2402C40.5305 37.1113 46.2042 35.5055 51.163 36.4228ZM48.1231 24.5144C53.4765 26.2014 52.8518 30.1396 52.9227 31.6921C47.06 28.6179 40.0069 29.7447 31.7635 35.0723C25.6193 39.0433 20.4725 40.6804 16.3233 39.9839C12.174 39.2873 11.2407 34.2199 11.0551 32.8733C15.6144 35.1786 21.7245 33.8555 29.3852 28.9044C36.5238 24.2909 42.7698 22.8275 48.1231 24.5144ZM36.5354 12.9459L40.2978 16.7017C40.5811 16.9844 40.5816 17.4435 40.2988 17.7269C40.1979 17.8281 40.0695 17.8971 39.9295 17.9253C34.483 19.0225 30.1271 20.6263 26.8619 22.7366C21.2666 26.3527 16.4985 28.0335 12.5577 27.779L12.5581 27.7779L27.3885 12.9459C29.9144 10.4241 34.0096 10.4241 36.5354 12.9459Z" fill="url(#paint2_linear_12201_2578)"/>
<path fill-rule="evenodd" clip-rule="evenodd" d="M46.08 5.76001C43.9592 5.76001 42.24 7.47923 42.24 9.60001V17.3714C42.24 19.4922 43.9592 21.2114 46.08 21.2114H54.2193C56.3401 21.2114 58.0593 19.4922 58.0593 17.3714V9.60001C58.0593 7.47924 56.3401 5.76001 54.2193 5.76001H46.08ZM45.4578 10.8169V16.7032H49.1166V15.8093H46.5241V10.8169H45.4578ZM50.3892 15.9329V16.7032H54.4246V15.8122H51.8608V15.7719L52.8754 14.7401C53.2567 14.3722 53.5527 14.0589 53.7635 13.8003C53.9762 13.5416 54.1247 13.3059 54.209 13.0932C54.2933 12.8805 54.3355 12.664 54.3355 12.4437C54.3355 12.1141 54.2521 11.8209 54.0854 11.5642C53.9206 11.3074 53.6888 11.1053 53.3899 10.9577C53.091 10.8102 52.7441 10.7364 52.3494 10.7364C51.9605 10.7364 51.6156 10.8121 51.3147 10.9635C51.0158 11.1149 50.7811 11.3285 50.6106 11.6044C50.44 11.8803 50.3548 12.2051 50.3548 12.5788H51.3693C51.3693 12.3776 51.4086 12.2042 51.4872 12.0585C51.5676 11.9129 51.6807 11.8008 51.8263 11.7223C51.9719 11.6418 52.1415 11.6015 52.335 11.6015C52.5228 11.6015 52.6905 11.6379 52.838 11.7108C52.9856 11.7836 53.1015 11.887 53.1858 12.0212C53.2701 12.1534 53.3123 12.3124 53.3123 12.4983C53.3123 12.6611 53.2797 12.8144 53.2145 12.9581C53.1494 13.1018 53.0517 13.2503 52.9214 13.4036C52.7911 13.5569 52.6282 13.7322 52.4328 13.9296L50.3892 15.9329Z" fill="url(#paint3_linear_12201_2578)"/>
<defs>
<linearGradient id="paint0_linear_12201_2578" x1="32" y1="64" x2="32" y2="2.24" gradientUnits="userSpaceOnUse">
<stop stop-color="#2C0370"/>
<stop offset="1" stop-color="#0F0027"/>
</linearGradient>
<linearGradient id="paint1_linear_12201_2578" x1="32" y1="64.0341" x2="32" y2="0.0347286" gradientUnits="userSpaceOnUse">
<stop stop-color="#CFDFFF"/>
<stop offset="1" stop-color="#7CACFF"/>
</linearGradient>
<linearGradient id="paint2_linear_12201_2578" x1="31.9889" y1="11.0546" x2="31.9889" y2="52.9222" gradientUnits="userSpaceOnUse">
<stop stop-color="#7DADFF"/>
<stop offset="1" stop-color="#CEDFFF"/>
</linearGradient>
<linearGradient id="paint3_linear_12201_2578" x1="50.1497" y1="5.76001" x2="50.1497" y2="21.2114" gradientUnits="userSpaceOnUse">
<stop stop-color="#FFB901"/>
<stop offset="1" stop-color="#F9CB53"/>
</linearGradient>
</defs>
</svg>
