<svg width="32" height="32" viewBox="0 0 32 32" fill="none" xmlns="http://www.w3.org/2000/svg">
<g id="SquaresFour" clip-path="url(#clip0_12174_7750)">
<path id="Vector" d="M13 6H7C6.44772 6 6 6.44772 6 7V13C6 13.5523 6.44772 14 7 14H13C13.5523 14 14 13.5523 14 13V7C14 6.44772 13.5523 6 13 6Z" stroke="url(#paint0_linear_12174_7750)" stroke-width="2" stroke-linecap="round" stroke-linejoin="round"/>
<path id="Vector_2" d="M25 6H19C18.4477 6 18 6.44772 18 7V13C18 13.5523 18.4477 14 19 14H25C25.5523 14 26 13.5523 26 13V7C26 6.44772 25.5523 6 25 6Z" stroke="url(#paint1_linear_12174_7750)" stroke-width="2" stroke-linecap="round" stroke-linejoin="round"/>
<path id="Vector_3" d="M13 18H7C6.44772 18 6 18.4477 6 19V25C6 25.5523 6.44772 26 7 26H13C13.5523 26 14 25.5523 14 25V19C14 18.4477 13.5523 18 13 18Z" stroke="url(#paint2_linear_12174_7750)" stroke-width="2" stroke-linecap="round" stroke-linejoin="round"/>
<path id="Vector_4" d="M25 18H19C18.4477 18 18 18.4477 18 19V25C18 25.5523 18.4477 26 19 26H25C25.5523 26 26 25.5523 26 25V19C26 18.4477 25.5523 18 25 18Z" stroke="url(#paint3_linear_12174_7750)" stroke-width="2" stroke-linecap="round" stroke-linejoin="round"/>
</g>
<defs>
<linearGradient id="paint0_linear_12174_7750" x1="10" y1="6" x2="9.92157" y2="19.4902" gradientUnits="userSpaceOnUse">
<stop stop-color="#3068EF"/>
<stop offset="1" stop-color="#1322AC"/>
</linearGradient>
<linearGradient id="paint1_linear_12174_7750" x1="22" y1="6" x2="21.9216" y2="19.4902" gradientUnits="userSpaceOnUse">
<stop stop-color="#3068EF"/>
<stop offset="1" stop-color="#1322AC"/>
</linearGradient>
<linearGradient id="paint2_linear_12174_7750" x1="10" y1="18" x2="9.92157" y2="31.4902" gradientUnits="userSpaceOnUse">
<stop stop-color="#3068EF"/>
<stop offset="1" stop-color="#1322AC"/>
</linearGradient>
<linearGradient id="paint3_linear_12174_7750" x1="22" y1="18" x2="21.9216" y2="31.4902" gradientUnits="userSpaceOnUse">
<stop stop-color="#3068EF"/>
<stop offset="1" stop-color="#1322AC"/>
</linearGradient>
<clipPath id="clip0_12174_7750">
<rect width="32" height="32" fill="white"/>
</clipPath>
</defs>
</svg>
